  0
SECTION
  2
HEADER
  9
$ACADVER
  1
AC1014
  9
$HANDSEED
  5
FFFF
  9
$MEASUREMENT
 70
     1
  0
ENDSEC
  0
SECTION
  2
TABLES
  0
TABLE
  2
VPORT
  5
8
330
0
100
AcDbSymbolTable
 70
     4
  0
VPORT
  5
2E
330
8
100
AcDbSymbolTableRecord
100
AcDbViewportTableRecord
  2
*ACTIVE
 70
     0
 10
0.0
 20
0.0
 11
1.0
 21
1.0
 12
210.0
 22
148.5
 13
0.0
 23
0.0
 14
10.0
 24
10.0
 15
10.0
 25
10.0
 16
0.0
 26
0.0
 36
1.0
 17
0.0
 27
0.0
 37
0.0
 40
341.0
 41
1.24
 42
50.0
 43
0.0
 44
0.0
 50
0.0
 51
0.0
 71
     0
 72
   100
 73
     1
 74
     3
 75
     0
 76
     0
 77
     0
 78
     0
  0
ENDTAB
  0
TABLE
  2
LTYPE
  5
5
330
0
100
AcDbSymbolTable
 70
     1
  0
LTYPE
  5
14
330
5
100
AcDbSymbolTableRecord
100
AcDbLinetypeTableRecord
  2
BYBLOCK
 70
     0
  3

 72
    65
 73
     0
 40
0.0
  0
LTYPE
  5
15
330
5
100
AcDbSymbolTableRecord
100
AcDbLinetypeTableRecord
  2
BYLAYER
 70
     0
  3

 72
    65
 73
     0
 40
0.0
  0
LTYPE
  5
16
330
5
100
AcDbSymbolTableRecord
100
AcDbLinetypeTableRecord
  2
CONTINUOUS
 70
     0
  3
Solid line
 72
    65
 73
     0
 40
0.0
  0
ENDTAB
  0
TABLE
  2
LAYER
  5
2
100
AcDbSymbolTable
 70
2
  0
LAYER
  5
50
100
AcDbSymbolTableRecord
100
AcDbLayerTableRecord
  2
0
 70
0
  6
CONTINUOUS
  0
LAYER
  5
51
100
AcDbSymbolTableRecord
100
AcDbLayerTableRecord
  2
Layer_1
 70
0
  6
CONTINUOUS
  0
ENDTAB
  0
TABLE
  2
STYLE
  5
3
330
0
100
AcDbSymbolTable
 70
     1
  0
STYLE
  5
11
330
3
100
AcDbSymbolTableRecord
100
AcDbTextStyleTableRecord
  2
STANDARD
 70
     0
 40
0.0
 41
1.0
 50
0.0
 71
     0
 42
2.5
  3
txt
  4

  0
ENDTAB
  0
TABLE
  2
VIEW
  5
6
330
0
100
AcDbSymbolTable
 70
     0
  0
ENDTAB
  0
TABLE
  2
UCS
  5
7
330
0
100
AcDbSymbolTable
 70
     0
  0
ENDTAB
  0
TABLE
  2
APPID
  5
9
330
0
100
AcDbSymbolTable
 70
     2
  0
APPID
  5
12
330
9
100
AcDbSymbolTableRecord
100
AcDbRegAppTableRecord
  2
ACAD
 70
     0
  0
ENDTAB
  0
TABLE
  2
DIMSTYLE
  5
A
330
0
100
AcDbSymbolTable
 70
     1
  0
DIMSTYLE
105
27
330
A
100
AcDbSymbolTableRecord
100
AcDbDimStyleTableRecord
  2
ISO-25
 70
     0
  3

  4

  5

  6

  7

 40
1.0
 41
2.5
 42
0.625
 43
3.75
 44
1.25
 45
0.0
 46
0.0
 47
0.0
 48
0.0
140
2.5
141
2.5
142
0.0
143
0.03937007874016
144
1.0
145
0.0
146
1.0
147
0.625
 71
     0
 72
     0
 73
     0
 74
     0
 75
     0
 76
     0
 77
     1
 78
     8
170
     0
171
     3
172
     1
173
     0
174
     0
175
     0
176
     0
177
     0
178
     0
270
     2
271
     2
272
     2
273
     2
274
     3
340
11
275
     0
280
     0
281
     0
282
     0
283
     0
284
     8
285
     0
286
     0
287
     3
288
     0
  0
ENDTAB
  0
TABLE
  2
BLOCK_RECORD
  5
1
330
0
100
AcDbSymbolTable
 70
     1
  0
BLOCK_RECORD
  5
1F
330
1
100
AcDbSymbolTableRecord
100
AcDbBlockTableRecord
  2
*MODEL_SPACE
  0
BLOCK_RECORD
  5
1B
330
1
100
AcDbSymbolTableRecord
100
AcDbBlockTableRecord
  2
*PAPER_SPACE
  0
ENDTAB
  0
ENDSEC
  0
SECTION
  2
BLOCKS
  0
BLOCK
  5
20
330
1F
100
AcDbEntity
  8
0
100
AcDbBlockBegin
  2
*MODEL_SPACE
 70
     0
 10
0.0
 20
0.0
 30
0.0
  3
*MODEL_SPACE
  1

  0
ENDBLK
  5
21
330
1F
100
AcDbEntity
  8
0
100
AcDbBlockEnd
  0
BLOCK
  5
1C
330
1B
100
AcDbEntity
 67
     1
  8
0
100
AcDbBlockBegin
  2
*PAPER_SPACE
  1

  0
ENDBLK
  5
1D
330
1B
100
AcDbEntity
 67
     1
  8
0
100
AcDbBlockEnd
  0
ENDSEC
  0
SECTION
  2
ENTITIES
  0
LWPOLYLINE
  5
100
100
AcDbEntity
  8
Layer_1
 62
7
100
AcDbPolyline
 90
38
 70
0
 10
56.771114
 20
1.411112
 30
0.0
 10
56.771114
 20
-47.588874
 30
0.0
 10
56.700007
 20
-48.294247
 30
0.0
 10
56.496068
 20
-48.951233
 30
0.0
 10
56.173370
 20
-49.545760
 30
0.0
 10
55.745989
 20
-50.063751
 30
0.0
 10
55.227998
 20
-50.491134
 30
0.0
 10
54.633472
 20
-50.813833
 30
0.0
 10
53.976485
 20
-51.017773
 30
0.0
 10
53.271112
 20
-51.088881
 30
0.0
 10
-4.728889
 20
-51.088881
 30
0.0
 10
-5.434262
 20
-51.017773
 30
0.0
 10
-6.091248
 20
-50.813833
 30
0.0
 10
-6.685774
 20
-50.491134
 30
0.0
 10
-7.203765
 20
-50.063751
 30
0.0
 10
-7.631146
 20
-49.545760
 30
0.0
 10
-7.953844
 20
-48.951233
 30
0.0
 10
-8.157782
 20
-48.294247
 30
0.0
 10
-8.228889
 20
-47.588874
 30
0.0
 10
-8.228889
 20
1.411112
 30
0.0
 10
-8.157781
 20
2.116485
 30
0.0
 10
-7.953841
 20
2.773471
 30
0.0
 10
-7.631143
 20
3.367998
 30
0.0
 10
-7.203762
 20
3.885990
 30
0.0
 10
-6.685772
 20
4.313372
 30
0.0
 10
-6.091246
 20
4.636071
 30
0.0
 10
-5.434261
 20
4.840012
 30
0.0
 10
-4.728889
 20
4.911120
 30
0.0
 10
53.271112
 20
4.911120
 30
0.0
 10
53.976484
 20
4.840012
 30
0.0
 10
54.633470
 20
4.636071
 30
0.0
 10
55.227996
 20
4.313372
 30
0.0
 10
55.745987
 20
3.885990
 30
0.0
 10
56.173368
 20
3.367998
 30
0.0
 10
56.496066
 20
2.773471
 30
0.0
 10
56.700006
 20
2.116485
 30
0.0
 10
56.771114
 20
1.411112
 30
0.0
 10
56.771114
 20
1.411112
 30
0.0
  0
LWPOLYLINE
  5
101
100
AcDbEntity
  8
Layer_1
 62
7
100
AcDbPolyline
 90
34
 70
0
 10
-3.444509
 20
-47.588846
 30
0.0
 10
-3.469414
 20
-47.840588
 30
0.0
 10
-3.542273
 20
-48.080361
 30
0.0
 10
-3.660295
 20
-48.301427
 30
0.0
 10
-3.820690
 20
-48.497048
 30
0.0
 10
-4.016310
 20
-48.657446
 30
0.0
 10
-4.237375
 20
-48.775470
 30
0.0
 10
-4.477147
 20
-48.848332
 30
0.0
 10
-4.728889
 20
-48.873239
 30
0.0
 10
-4.980631
 20
-48.848332
 30
0.0
 10
-5.220403
 20
-48.775470
 30
0.0
 10
-5.441468
 20
-48.657446
 30
0.0
 10
-5.637087
 20
-48.497048
 30
0.0
 10
-5.797483
 20
-48.301427
 30
0.0
 10
-5.915505
 20
-48.080361
 30
0.0
 10
-5.988364
 20
-47.840588
 30
0.0
 10
-6.013269
 20
-47.588846
 30
0.0
 10
-5.987172
 20
-47.330001
 30
0.0
 10
-5.912332
 20
-47.088912
 30
0.0
 10
-5.793912
 20
-46.870744
 30
0.0
 10
-5.637077
 20
-46.680662
 30
0.0
 10
-5.446993
 20
-46.523830
 30
0.0
 10
-5.228824
 20
-46.405412
 30
0.0
 10
-4.987734
 20
-46.330574
 30
0.0
 10
-4.728889
 20
-46.304481
 30
0.0
 10
-4.470043
 20
-46.330575
 30
0.0
 10
-4.228954
 20
-46.405412
 30
0.0
 10
-4.010784
 20
-46.523830
 30
0.0
 10
-3.820700
 20
-46.680662
 30
0.0
 10
-3.663866
 20
-46.870744
 30
0.0
 10
-3.545446
 20
-47.088912
 30
0.0
 10
-3.470606
 20
-47.330001
 30
0.0
 10
-3.444509
 20
-47.588846
 30
0.0
 10
-3.444509
 20
-47.588846
 30
0.0
  0
LWPOLYLINE
  5
102
100
AcDbEntity
  8
Layer_1
 62
7
100
AcDbPolyline
 90
34
 70
0
 10
54.555492
 20
-47.588846
 30
0.0
 10
54.530587
 20
-47.840588
 30
0.0
 10
54.457728
 20
-48.080361
 30
0.0
 10
54.339706
 20
-48.301427
 30
0.0
 10
54.179310
 20
-48.497048
 30
0.0
 10
53.983691
 20
-48.657445
 30
0.0
 10
53.762626
 20
-48.775470
 30
0.0
 10
53.522854
 20
-48.848332
 30
0.0
 10
53.271112
 20
-48.873239
 30
0.0
 10
53.019370
 20
-48.848332
 30
0.0
 10
52.779598
 20
-48.775471
 30
0.0
 10
52.558533
 20
-48.657446
 30
0.0
 10
52.362913
 20
-48.497049
 30
0.0
 10
52.202517
 20
-48.301428
 30
0.0
 10
52.084494
 20
-48.080362
 30
0.0
 10
52.011635
 20
-47.840588
 30
0.0
 10
51.986730
 20
-47.588846
 30
0.0
 10
52.012827
 20
-47.330001
 30
0.0
 10
52.087668
 20
-47.088912
 30
0.0
 10
52.206088
 20
-46.870744
 30
0.0
 10
52.362922
 20
-46.680661
 30
0.0
 10
52.553007
 20
-46.523829
 30
0.0
 10
52.771177
 20
-46.405412
 30
0.0
 10
53.012267
 20
-46.330574
 30
0.0
 10
53.271112
 20
-46.304481
 30
0.0
 10
53.529958
 20
-46.330575
 30
0.0
 10
53.771047
 20
-46.405413
 30
0.0
 10
53.989216
 20
-46.523830
 30
0.0
 10
54.179300
 20
-46.680662
 30
0.0
 10
54.336135
 20
-46.870744
 30
0.0
 10
54.454554
 20
-47.088912
 30
0.0
 10
54.529395
 20
-47.330001
 30
0.0
 10
54.555492
 20
-47.588846
 30
0.0
 10
54.555492
 20
-47.588846
 30
0.0
  0
LWPOLYLINE
  5
103
100
AcDbEntity
  8
Layer_1
 62
7
100
AcDbPolyline
 90
34
 70
0
 10
-3.444509
 20
1.411112
 30
0.0
 10
-3.470606
 20
1.152267
 30
0.0
 10
-3.545446
 20
0.911179
 30
0.0
 10
-3.663866
 20
0.693011
 30
0.0
 10
-3.820700
 20
0.502928
 30
0.0
 10
-4.010784
 20
0.346096
 30
0.0
 10
-4.228954
 20
0.227679
 30
0.0
 10
-4.470043
 20
0.152841
 30
0.0
 10
-4.728889
 20
0.126747
 30
0.0
 10
-4.987734
 20
0.152841
 30
0.0
 10
-5.228824
 20
0.227679
 30
0.0
 10
-5.446993
 20
0.346096
 30
0.0
 10
-5.637077
 20
0.502928
 30
0.0
 10
-5.793912
 20
0.693011
 30
0.0
 10
-5.912332
 20
0.911179
 30
0.0
 10
-5.987172
 20
1.152267
 30
0.0
 10
-6.013269
 20
1.411112
 30
0.0
 10
-5.988364
 20
1.662855
 30
0.0
 10
-5.915505
 20
1.902628
 30
0.0
 10
-5.797483
 20
2.123694
 30
0.0
 10
-5.637087
 20
2.319315
 30
0.0
 10
-5.441468
 20
2.479712
 30
0.0
 10
-5.220403
 20
2.597737
 30
0.0
 10
-4.980631
 20
2.670598
 30
0.0
 10
-4.728889
 20
2.695506
 30
0.0
 10
-4.477147
 20
2.670598
 30
0.0
 10
-4.237375
 20
2.597737
 30
0.0
 10
-4.016310
 20
2.479712
 30
0.0
 10
-3.820690
 20
2.319315
 30
0.0
 10
-3.660295
 20
2.123693
 30
0.0
 10
-3.542273
 20
1.902627
 30
0.0
 10
-3.469414
 20
1.662855
 30
0.0
 10
-3.444509
 20
1.411112
 30
0.0
 10
-3.444509
 20
1.411112
 30
0.0
  0
LWPOLYLINE
  5
104
100
AcDbEntity
  8
Layer_1
 62
7
100
AcDbPolyline
 90
34
 70
0
 10
54.555492
 20
1.411112
 30
0.0
 10
54.529395
 20
1.152267
 30
0.0
 10
54.454554
 20
0.911179
 30
0.0
 10
54.336135
 20
0.693011
 30
0.0
 10
54.179300
 20
0.502929
 30
0.0
 10
53.989216
 20
0.346096
 30
0.0
 10
53.771047
 20
0.227679
 30
0.0
 10
53.529958
 20
0.152841
 30
0.0
 10
53.271112
 20
0.126747
 30
0.0
 10
53.012267
 20
0.152841
 30
0.0
 10
52.771177
 20
0.227678
 30
0.0
 10
52.553007
 20
0.346095
 30
0.0
 10
52.362922
 20
0.502928
 30
0.0
 10
52.206088
 20
0.693010
 30
0.0
 10
52.087668
 20
0.911178
 30
0.0
 10
52.012827
 20
1.152267
 30
0.0
 10
51.986730
 20
1.411112
 30
0.0
 10
52.011635
 20
1.662855
 30
0.0
 10
52.084494
 20
1.902628
 30
0.0
 10
52.202517
 20
2.123694
 30
0.0
 10
52.362913
 20
2.319316
 30
0.0
 10
52.558533
 20
2.479713
 30
0.0
 10
52.779598
 20
2.597738
 30
0.0
 10
53.019370
 20
2.670599
 30
0.0
 10
53.271112
 20
2.695506
 30
0.0
 10
53.522854
 20
2.670598
 30
0.0
 10
53.762626
 20
2.597737
 30
0.0
 10
53.983691
 20
2.479712
 30
0.0
 10
54.179310
 20
2.319315
 30
0.0
 10
54.339706
 20
2.123693
 30
0.0
 10
54.457728
 20
1.902627
 30
0.0
 10
54.530587
 20
1.662854
 30
0.0
 10
54.555492
 20
1.411112
 30
0.0
 10
54.555492
 20
1.411112
 30
0.0
  0
LWPOLYLINE
  5
105
100
AcDbEntity
  8
Layer_1
 62
7
100
AcDbPolyline
 90
4
 70
0
 10
0.000000
 20
0.500014
 30
0.0
 10
0.000000
 20
-0.499984
 30
0.0
 10
0.000000
 20
-0.499984
 30
0.0
 10
0.000000
 20
-0.499984
 30
0.0
  0
LWPOLYLINE
  5
106
100
AcDbEntity
  8
Layer_1
 62
7
100
AcDbPolyline
 90
2
 70
0
 10
0.500000
 20
0.000001
 30
0.0
 10
-0.500000
 20
0.000001
 30
0.0
  0
ENDSEC
  0
SECTION
  2
OBJECTS
  0
DICTIONARY
  5
C
330
0
100
AcDbDictionary
  3
ACAD_GROUP
350
D
  3
ACAD_MLINESTYLE
350
17
  0
DICTIONARY
  5
D
330
C
100
AcDbDictionary
  0
DICTIONARY
  5
1A
330
C
100
AcDbDictionary
  0
DICTIONARY
  5
17
330
C
100
AcDbDictionary
  3
STANDARD
350
18
  0
DICTIONARY
  5
19
330
C
100
AcDbDictionary
  0
ENDSEC
  0
EOF
