<?xml version="1.0" encoding="UTF-8" standalone="no"?>
<svg
   xmlns:dc="http://purl.org/dc/elements/1.1/"
   xmlns:cc="http://creativecommons.org/ns#"
   xmlns:rdf="http://www.w3.org/1999/02/22-rdf-syntax-ns#"
   xmlns:svg="http://www.w3.org/2000/svg"
   xmlns="http://www.w3.org/2000/svg"
   version="1.1"
   id="svg2"
   viewBox="0 0 744.09448819 1052.3622047"
   height="297mm"
   width="210mm">
  <defs
     id="defs4" />
  <metadata
     id="metadata7">
    <rdf:RDF>
      <cc:Work
         rdf:about="">
        <dc:format>image/svg+xml</dc:format>
        <dc:type
           rdf:resource="http://purl.org/dc/dcmitype/StillImage" />
        <dc:title></dc:title>
      </cc:Work>
    </rdf:RDF>
  </metadata>
  <g
     id="layer1">
    <path
       id="circle4158"
       d="M201.15749 1047.3622L201.15749 1220.9842L200.905537109 1223.48355078L200.1829175 1225.81145625L199.039501016 1227.91804609L197.5251575 1229.75345L195.689756797 1231.26779766L193.58316875 1232.41121875L191.255263203 1233.13384297L188.75591 1233.3858L-16.755905 1233.3858L-19.2552584395 1233.13384297L-21.5831639531 1232.41121875L-23.689751709 1231.26779766L-25.525151875 1229.75345L-27.0394946191 1227.91804609L-28.1829101094 1225.81145625L-28.9055285137 1223.48355078L-29.15748 1220.9842L-29.15748 1047.3622L-28.9055231406 1044.86284922L-28.18290125 1042.53494375L-27.0394839844 1040.42835391L-25.525141 1038.59295L-23.6897419531 1037.07860234L-21.5831565 1035.93518125L-19.2552542969 1035.21255703L-16.755905 1034.9606L188.75591 1034.9606L191.255259922 1035.21255703L193.583163125 1035.93518125L195.689749766 1037.07860234L197.52515 1038.59295L199.039493984 1040.42835391L200.182911875 1042.53494375L200.905533828 1044.86284922L201.15749 1047.3622L201.15749 1047.3622"
       style="fill:none;stroke:#000000" />
    <path
       style="fill:none;stroke:#000000;stroke-width:0.64218998"
       d="M-12.204953 1220.9841L-12.2931981045 1221.87609955L-12.5513599241 1222.72568861L-12.9695498132 1223.50899335L-13.5378791264 1224.20213993L-14.2310197156 1224.77047656L-15.0143200436 1225.18867471L-15.8639063815 1225.44684549L-16.755905 1225.5351L-17.6479037622 1225.44684566L-18.4974902634 1225.18867499L-19.280790763 1224.7704769L-19.97393152 1224.20214029L-20.5422609797 1223.50899366L-20.9604509803 1222.72568884L-21.2186128707 1221.87609967L-21.306858 1220.9841L-21.2143896579 1220.0669324L-20.9492064538 1219.21268062L-20.529608564 1218.43964462L-19.9738961647 1217.76612436L-19.3003694324 1217.2104198L-18.5273285433 1216.79083092L-17.6730736737 1216.52565766L-16.755905 1216.4332L-15.8387364814 1216.52565784L-14.9844817777 1216.7908312L-14.2114410556 1217.21042015L-13.5379144817 1217.76612471L-12.9822022226 1218.43964494L-12.5626044449 1219.21268086L-12.2974213151 1220.06693254L-12.204953 1220.9841L-12.204953 1220.9841"
       id="path4170" />
    <path
       style="fill:none;stroke:#000000;stroke-width:0.64218998"
       d="M193.30686 1220.9841L193.218614945 1221.8760993L192.960453267 1222.72568815L192.542263601 1223.50899273L191.973934581 1224.20213923L191.280794327 1224.77047586L190.497494342 1225.18867413L189.647908331 1225.44684515L188.75591 1225.5351L187.863910232 1225.44684686L187.014322587 1225.188677L186.231020887 1224.77047934L185.537878955 1224.20214276L184.96954847 1223.50899583L184.551357689 1222.72569046L184.293195303 1221.87610054L184.20495 1220.9841L184.297418531 1220.06693146L184.562602256 1219.21267892L184.98220093 1218.4396424L185.53791431 1217.76612188L186.211442151 1217.21041738L186.98448421 1216.7908289L187.838740241 1216.52565644L188.75591 1216.4332L189.673078208 1216.52565818L190.52733258 1216.79083178L191.300372968 1217.21042084L191.973899225 1217.76612542L192.529611204 1218.43964557L192.949208758 1219.21268135L193.214391739 1220.06693281L193.30686 1220.9841L193.30686 1220.9841"
       id="circle4172" />
    <path
       style="fill:none;stroke:#000000;stroke-width:0.64218998"
       d="M-12.204953 1047.3622L-12.2974213151 1048.27936746L-12.5626044449 1049.13361914L-12.9822022226 1049.90665506L-13.5379144817 1050.58017529L-14.2114410556 1051.13587985L-14.9844817777 1051.5554688L-15.8387364814 1051.82064216L-16.755905 1051.9131L-17.6730736737 1051.82064234L-18.5273285433 1051.55546908L-19.3003694324 1051.1358802L-19.9738961647 1050.58017564L-20.529608564 1049.90665538L-20.9492064538 1049.13361938L-21.2143896579 1048.2793676L-21.306858 1047.3622L-21.2186128707 1046.47020033L-20.9604509803 1045.62061116L-20.5422609797 1044.83730634L-19.97393152 1044.14415971L-19.280790763 1043.5758231L-18.4974902634 1043.15762501L-17.6479037622 1042.89945434L-16.755905 1042.8112L-15.8639063815 1042.89945451L-15.0143200436 1043.15762529L-14.2310197156 1043.57582344L-13.5378791264 1044.14416007L-12.9695498132 1044.83730665L-12.5513599241 1045.62061139L-12.2931981045 1046.47020045L-12.204953 1047.3622L-12.204953 1047.3622"
       id="circle4174" />
    <path
       style="fill:none;stroke:#000000;stroke-width:0.64218998"
       d="M193.30686 1047.3622L193.214391739 1048.27936719L192.949208758 1049.13361865L192.529611204 1049.90665443L191.973899225 1050.58017458L191.300372968 1051.13587916L190.52733258 1051.55546822L189.673078208 1051.82064182L188.75591 1051.9131L187.838740241 1051.82064356L186.98448421 1051.5554711L186.211442151 1051.13588262L185.53791431 1050.58017812L184.98220093 1049.9066576L184.562602256 1049.13362108L184.297418531 1048.27936854L184.20495 1047.3622L184.293195303 1046.47019946L184.551357689 1045.62060954L184.96954847 1044.83730417L185.537878955 1044.14415724L186.231020887 1043.57582066L187.014322587 1043.157623L187.863910232 1042.89945314L188.75591 1042.8112L189.647908331 1042.89945485L190.497494342 1043.15762587L191.280794327 1043.57582414L191.973934581 1044.14416077L192.542263601 1044.83730727L192.960453267 1045.62061185L193.218614945 1046.4702007L193.30686 1047.3622L193.30686 1047.3622"
       id="circle4176" />
    <path
       id="path4414"
       d="m 0,1050.5905 0,3.5433 0,0 0,0"
       style="fill:none;fill-rule:evenodd;stroke:#000000;stroke-width:1px;stroke-linecap:butt;stroke-linejoin:miter;stroke-opacity:1" />
    <path
       id="path4416"
       d="m 1.7716536,1052.3622 -3.5433072,0"
       style="fill:none;fill-rule:evenodd;stroke:#000000;stroke-width:1px;stroke-linecap:butt;stroke-linejoin:miter;stroke-opacity:1" />
  </g>
</svg>
